<svg t="1714027431776" class="icon" viewBox="0 0 1181 1024" version="1.1" xmlns="http://www.w3.org/2000/svg" p-id="4639" width="128" height="128">
  <path d="M35.639445 290.521541l537.728475 191.478589a44.849638 44.849638 0 0 0 18.820831 2.736362c5.339243 0 13.348107 0 16.084468-2.736362l537.728476-191.478589a52.658281 52.658281 0 0 0 35.305742-51.189989 52.658281 52.658281 0 0 0-34.97204-51.25673L608.273219 2.002216a77.085316 77.085316 0 0 0-34.905299 0L35.639445 188.074822A55.327902 55.327902 0 0 0 0.667405 239.331552a52.725021 52.725021 0 0 0 34.97204 51.189989z m0 272.368116l537.728475 188.742227a51.590432 51.590432 0 0 0 18.820831 2.736362 19.621717 19.621717 0 0 0 16.084468-5.405983l537.728476-188.742228a52.858502 52.858502 0 0 0-34.905299-100.1108L592.188751 643.779183 70.611484 463.112559c-26.696213-10.745226-56.462491 5.405983-67.207717 32.369159s5.339243 56.662713 32.235678 67.407939z m1075.456951 166.851332l-518.907645 183.736688-521.577267-180.733364c-26.696213-10.745226-56.462491 5.405983-67.207717 32.369159s5.339243 56.662713 32.235678 67.474679L573.36792 1021.130157a52.791762 52.791762 0 0 0 18.820831 2.669621 19.621717 19.621717 0 0 0 16.084468-5.405983l537.728476-188.742228a52.858502 52.858502 0 0 0-34.905299-100.110799z" p-id="4640"></path>
</svg>